<?xml version="1.0" encoding="UTF-8" standalone="no"?>
<!-- Created with Inkscape (http://www.inkscape.org/) -->

<svg
   width="280.49249mm"
   height="240.51695mm"
   viewBox="0 0 280.4925 240.51696"
   version="1.1"
   id="svg1"
   xml:space="preserve"
   inkscape:version="1.2.2 (732a01da63, 2022-12-09)"
   sodipodi:docname="MapService.svg"
   xmlns:inkscape="http://www.inkscape.org/namespaces/inkscape"
   xmlns:sodipodi="http://sodipodi.sourceforge.net/DTD/sodipodi-0.dtd"
   xmlns="http://www.w3.org/2000/svg"
   xmlns:svg="http://www.w3.org/2000/svg"><sodipodi:namedview
     id="namedview1"
     pagecolor="#ffffff"
     bordercolor="#000000"
     borderopacity="0.25"
     inkscape:showpageshadow="2"
     inkscape:pageopacity="0.0"
     inkscape:pagecheckerboard="0"
     inkscape:deskcolor="#d1d1d1"
     inkscape:document-units="mm"
     inkscape:zoom="0.8102308"
     inkscape:cx="385.69257"
     inkscape:cy="437.52965"
     inkscape:window-width="1920"
     inkscape:window-height="991"
     inkscape:window-x="-9"
     inkscape:window-y="-9"
     inkscape:window-maximized="1"
     inkscape:current-layer="layer1"
     showgrid="false" /><defs
     id="defs1"><marker
       style="overflow:visible"
       id="RoundedArrow"
       refX="0"
       refY="0"
       orient="auto-start-reverse"
       inkscape:stockid="Rounded arrow"
       markerWidth="1"
       markerHeight="1"
       viewBox="0 0 1 1"
       inkscape:isstock="true"
       inkscape:collect="always"
       preserveAspectRatio="xMidYMid"><path
         transform="scale(0.7)"
         d="m -0.21114562,-4.1055728 6.42229122,3.21114561 a 1,1 90 0 1 0,1.78885438 L -0.21114562,4.1055728 A 1.236068,1.236068 31.717474 0 1 -2,3 v -6 a 1.236068,1.236068 148.28253 0 1 1.78885438,-1.1055728 z"
         style="fill:context-stroke;fill-rule:evenodd;stroke:none"
         id="path8" /></marker></defs><g
     inkscape:label="Vrstva 1"
     inkscape:groupmode="layer"
     id="layer1"
     transform="translate(33.898129,-27.334496)"><path
       id="rect7"
       style="fill:#0065bd;fill-opacity:1;stroke-width:4.66405;stroke-miterlimit:10"
       d="m 80.773757,188.50965 v 42.34803 h 51.148723 v -42.34803 z m 2.091745,2.09174 h 9.983319 l 17.312239,17.31225 -2.50332,2.51113 h -4.88158 c 0.0781,-0.40636 0.13275,-0.81009 0.13275,-1.19827 0,-3.85517 -3.136624,-6.98897 -6.988989,-6.98897 -3.85521,0 -6.987675,3.13667 -6.987675,6.98897 0,4.62631 5.983485,10.90644 6.238785,11.16984 0.19533,0.20314 0.466275,0.32043 0.750195,0.32043 0.28395,0 0.554835,-0.11475 0.750225,-0.32043 0.10935,-0.1146 1.260785,-1.32588 2.547605,-3.03209 h 6.647714 l 11.4017,11.40167 2.94876,-0.001 -13.17824,-13.17826 c -0.0963,-0.0963 -0.21096,-0.17063 -0.33865,-0.22533 -0.1275,-0.0522 -0.2631,-0.0807 -0.39855,-0.0807 h -5.64222 c 0.56787,-0.90134 1.08621,-1.85462 1.48738,-2.81591 0.0729,0.0152 0.13815,0.0444 0.21626,0.0444 h 5.73079 c 0.27611,0 0.54179,-0.10935 0.73719,-0.30738 l 3.53747,-3.54787 c 0,0 0.003,-0.003 0.004,-0.003 0.40639,-0.40637 0.40639,-1.06545 0,-1.47437 L 95.796801,190.60116 h 3.92561 l 14.603129,14.60315 c 0.004,0.005 0.007,0.012 0.012,0.0203 0.20315,0.20314 0.47018,0.30607 0.7359,0.30607 0.26571,0 0.53399,-0.1029 0.73718,-0.30607 l 14.01834,-14.05091 v 4.08189 l -18.86087,18.86087 c -0.40632,0.40636 -0.40632,1.06414 0,1.47307 l 13.17564,13.17564 2.94746,10e-4 -13.91283,-13.91281 16.6506,-16.65059 v 30.5634 h -2.73777 -9.82442 -34.403053 z m 19.803858,0 h 24.78829 l -12.38371,12.40719 z m -6.749349,13.72006 c 2.70392,0 4.905069,2.20115 4.905069,4.90505 0,2.7247 -3.060724,6.7957 -4.905069,8.90358 -1.84422,-2.10734 -4.90503,-6.17853 -4.90503,-8.90358 0,-2.7039 2.201145,-4.90505 4.90503,-4.90505 z m 0,1.8521 c -1.912005,0 -3.46452,1.55512 -3.46452,3.46452 0,1.91203 1.55511,3.46453 3.46452,3.46453 1.91204,0 3.464555,-1.55512 3.464555,-3.46453 0.003,-1.91201 -1.552515,-3.46452 -3.464555,-3.46452 z m 0,2.08392 c 0.760635,0 1.380605,0.61999 1.380605,1.3806 0.003,0.76063 -0.617345,1.3806 -1.380605,1.3806 -0.760605,0 -1.3806,-0.61997 -1.3806,-1.3806 0,-0.76061 0.619995,-1.3806 1.3806,-1.3806 z" /><path
       id="path1"
       style="stroke-width:0.862208"
       d="m -2.9054459,108.03965 c -1.742547,0 -3.670362,0.34486 -4.821411,1.04412 -3.0573901,1.1545 -3.6790961,3.75838 -3.6842711,3.78426 l -0.03022,0.0737 c -1.667511,2.81943 -0.459459,6.51862 -0.407727,6.67555 l 0.03722,0.114 -0.06434,0.1047 c -0.159515,0.25157 -0.352746,0.88053 0.162006,2.32389 0.0026,0.0164 0.381042,1.78958 1.08288,2.49054 l 0.06201,0.0946 c 0.441453,1.22178 1.1038736,2.4158 1.9169366,3.4556 l -0.00705,0.0805 -0.2999805,1.68051 c -0.029325,0.1131 -0.060105,0.23055 -0.094575,0.35578 l -0.122475,0.35348 c -0.3034875,0.58716 -1.1825371,1.46986 -3.6424141,2.33551 -0.02054,0.0105 -1.089156,0.42135 -2.531628,1.1387 -1.583875,0.79413 -3.61458,1.95847 -5.218287,3.38971 -0.03447,0.0261 -3.070893,2.32028 -2.812231,8.42817 0.01727,0.44405 0.05085,0.90329 0.107745,1.38441 0,0.4863 0.15541,0.87665 1.096056,1.16892 0.07674,0.0294 8.22175,2.91144 19.0174436,2.91144 0.133605,0 0.2715435,-0.003 0.407727,-0.003 0.13458,0 0.269904,0.003 0.405402,0.003 7.5710655,0 13.8323344,-1.41648 16.9276484,-2.2735 -0.922548,-0.73632 -1.51231,-1.86465 -1.51231,-3.12693 h -0.0031 v -0.1248 -1.965 -0.0759 -7.85766 c -1.108787,-0.74322 -2.250488,-1.3725 -3.2230594,-1.8588 -1.441602,-0.71735 -2.51016,-1.13091 -2.530854,-1.1387 -2.4607395,-0.86565 -3.3373755,-1.74835 -3.640863,-2.33551 l -0.1248,-0.35348 c -0.03552,-0.1251 -0.066225,-0.24117 -0.09456,-0.355 l -0.2992065,-1.68129 -0.0054,-0.0805 c 0.813054,-1.0398 1.4747325,-2.23298 1.9161615,-3.4556 l 0.06279,-0.0937 c 0.700989,-0.70095 1.0797075,-2.47408 1.080555,-2.49132 0.514749,-1.44336 0.323886,-2.07126 0.1635555,-2.32389 l -0.065895,-0.10395 0.03876,-0.11475 c 0.05247,-0.15708 1.2597705,-3.85536 -0.407727,-6.67479 l -0.030225,-0.0744 c -0.0033,-0.0261 -0.626856,-2.62986 -3.6842715,-3.78348 -1.151052,-0.69927 -3.07889699,-1.04412 -4.821411,-1.04412 -0.05181,0 -0.102645,8.6e-4 -0.1534785,10e-4 -0.050835,-8.5e-4 -0.099675,-10e-4 -0.1511535,-10e-4 z m 20.0344369,13.49917 c -0.630275,0 -1.169697,0.4683 -1.169697,1.08134 v 21.24366 0.0736 1.96732 0.12405 c 0,0.6156 0.538575,1.13016 1.169697,1.13016 h 14.149524 c -0.01629,0.35267 -0.13005,1.86677 -0.86894,2.60139 -0.580252,0.57683 -1.38838,1.12059 -1.072803,1.39992 0.07755,0.16914 0.436544,0.26898 1.264265,0.26898 h 4.509801 0.286804 4.509803 c 0.941515,0 1.267785,-0.1485 1.271239,-0.37362 h -0.03411 v -0.0776 h -0.03178 c -0.04041,-0.30013 -0.6667,-0.74854 -1.141791,-1.2193 -0.738888,-0.73463 -0.852724,-2.24634 -0.86739,-2.59985 h 13.957289 c 0.630273,0 1.141791,-0.51454 1.141791,-1.13016 v -0.1248 -1.96654 -0.0751 -21.24056 c -8.48e-4,-0.61389 -0.511518,-1.08288 -1.141791,-1.08288 h -17.66326 -0.603063 z m 0.443383,1.49835 h 35.017242 v 19.25387 H 17.572374 Z m 17.508234,1.07282 c -2.711664,0 -5.203419,1.2478 -6.839893,3.42226 -0.307952,0.40868 -0.582683,0.85224 -0.815454,1.31697 -0.600096,1.19502 -0.904596,2.48085 -0.904596,3.8207 0,1.33902 0.304369,2.62414 0.904596,3.81915 0.232674,0.46561 0.506785,0.90897 0.815454,1.31853 1.635594,2.1736 4.128229,3.42142 6.839893,3.42226 2.709903,0 5.204016,-1.24848 6.842217,-3.42381 0.307952,-0.41128 0.584376,-0.85314 0.815454,-1.31698 0.598371,-1.19675 0.902271,-2.48013 0.902271,-3.81915 0,-1.33985 -0.3039,-2.62479 -0.902271,-3.8207 -0.232023,-0.46473 -0.507664,-0.90657 -0.815454,-1.31697 -1.637353,-2.17446 -4.131433,-3.42226 -6.842217,-3.42226 z m -0.634845,1.39138 v 3.66954 l -0.163557,-0.006 c -0.665629,-0.0294 -1.319718,-0.099 -1.944841,-0.20077 l -0.179835,-0.0294 0.05349,-0.17441 c 0.462156,-1.48555 1.189152,-2.61922 1.994452,-3.11067 z m 1.268139,0 0.241071,0.14655 c 0.804452,0.49145 1.529828,1.62506 1.993677,3.11066 l 0.05425,0.1744 -0.180609,0.0294 c -0.625971,0.1017 -1.279389,0.16923 -1.943292,0.19922 l -0.165106,0.006 z m -3.619159,0.49145 -0.279053,0.48678 c -0.341451,0.59925 -0.629865,1.28499 -0.855762,2.03941 l -0.04341,0.14655 -0.14805,-0.0387 c -0.406984,-0.1095 -0.812608,-0.23895 -1.209229,-0.3837 l -0.21239,-0.0776 0.144945,-0.17364 c 0.593222,-0.70872 1.303625,-1.28961 2.111499,-1.72935 z m 5.971729,0.002 0.489893,0.2682 c 0.807907,0.43888 1.516479,1.01976 2.112274,1.72935 l 0.14418,0.17131 -0.210064,0.0798 c -0.397469,0.14505 -0.804005,0.27266 -1.20923,0.38216 l -0.14805,0.0404 -0.04574,-0.1473 c -0.224853,-0.7518 -0.513535,-1.43595 -0.854986,-2.03864 z m -9.421906,3.25018 0.13332,0.0536 c 0.54235,0.2154 1.11823,0.40412 1.712298,0.56276 l 0.13953,0.0372 -0.02325,0.141 c -0.10167,0.5889 -0.166503,1.20949 -0.198438,1.84407 l -0.007,0.15192 h -2.585114 l 0.0186,-0.1775 c 0.09581,-0.8691 0.347553,-1.70485 0.74414,-2.48512 z m 12.870532,0 0.06433,0.12795 c 0.397467,0.77943 0.647375,1.61594 0.745691,2.48589 l 0.02016,0.17673 h -2.586665 l -0.0062,-0.15114 c -0.0326,-0.63112 -0.09664,-1.25019 -0.197662,-1.84252 l -0.02325,-0.1434 0.13953,-0.0372 c 0.597522,-0.15936 1.173328,-0.34818 1.713073,-0.56198 h -0.0031 z m -9.644371,0.92475 0.157354,0.0256 c 0.730284,0.1242 1.492955,0.20306 2.268078,0.23564 l 0.151154,0.006 -0.0015,1.59834 h -2.776575 l 0.01005,-0.16511 c 0.02607,-0.52074 0.083,-1.04076 0.165106,-1.54254 z m 6.419763,0.001 0.02714,0.15657 c 0.08375,0.50351 0.139365,1.02264 0.165106,1.54254 l 0.01005,0.16511 h -2.7789 v -1.5968 l 0.151929,-0.006 c 0.775971,-0.0329 1.537763,-0.1125 2.268078,-0.23565 z m -6.622853,3.13004 h 2.776575 l 0.0015,1.59835 -0.151153,0.006 c -0.775125,0.0329 -1.539419,0.1125 -2.268855,0.23565 l -0.156579,0.0256 -0.02557,-0.15657 c -0.08277,-0.50181 -0.139935,-1.02177 -0.166658,-1.54254 z m 8.090979,0.001 h 2.585114 l -0.01705,0.17751 c -0.09842,0.86995 -0.348222,1.70638 -0.745691,2.48667 l -0.06433,0.1263 -0.1341,-0.0519 c -0.541473,-0.21476 -1.117456,-0.40566 -1.711524,-0.5643 l -0.13953,-0.0372 0.0217,-0.141 c 0.101025,-0.59319 0.167478,-1.21208 0.198437,-1.84407 z m -11.942682,10e-4 h 2.583564 0.0015 l 0.007,0.14955 c 0.03258,0.6346 0.09676,1.25431 0.198438,1.84408 l 0.02325,0.1434 -0.13953,0.0372 c -0.594948,0.15936 -1.170826,0.34875 -1.712298,0.56432 l -0.13332,0.0519 -0.06589,-0.12795 c -0.396621,-0.7803 -0.64843,-1.61832 -0.744139,-2.48744 z m 7.897968,0 h 2.7789 l -0.01005,0.1651 c -0.02607,0.52074 -0.08234,1.03988 -0.165106,1.54254 l -0.02714,0.15813 -0.156581,-0.0256 c -0.729436,-0.1242 -1.491228,-0.20383 -2.268078,-0.23643 l -0.151929,-0.006 z m 0,2.86494 0.165107,0.006 c 0.663903,0.0292 1.315626,0.099 1.943292,0.20076 l 0.180609,0.0294 -0.05425,0.17284 c -0.463002,1.4856 -1.189226,2.62007 -1.993677,3.11067 l -0.241071,0.14805 z m -1.268139,0.001 v 3.66567 l -0.240295,-0.14655 c -0.804453,-0.49061 -1.531449,-1.62594 -1.994453,-3.11066 l -0.05349,-0.17286 0.179835,-0.0294 c 0.622517,-0.1011 1.277486,-0.16728 1.944842,-0.19921 z m 4.798157,0.49998 0.14805,0.0403 c 0.409557,0.1104 0.815884,0.23895 1.210779,0.3837 l 0.210064,0.0776 -0.14418,0.17364 c -0.595795,0.70875 -1.305247,1.29204 -2.112274,1.73089 l -0.489893,0.2682 0.278277,-0.48679 c 0.342299,-0.60182 0.62997,-1.28843 0.854987,-2.0394 z m -8.327399,0.001 0.04341,0.14655 c 0.225831,0.75442 0.515192,1.44018 0.855762,2.0394 l 0.279053,0.48447 -0.491442,-0.26588 c -0.808755,-0.44059 -1.518278,-1.023 -2.111499,-1.73089 l -0.144945,-0.17364 0.212389,-0.0776 c 0.398349,-0.1467 0.806579,-0.27414 1.20923,-0.3837 z m 4.164087,7.40265 c 0.725135,0 1.312323,0.57517 1.312323,1.28131 0,0.70614 -0.587188,1.27977 -1.312323,1.27977 -0.725983,0 -1.314649,-0.57363 -1.314649,-1.27977 0,-0.70614 0.589546,-1.28131 1.314649,-1.28131 z" /><path
       id="path1-8"
       style="stroke-width:0.396874"
       d="m 195.75723,116.74535 -27.62313,0.001 c -0.65889,0 -1.20303,0.53643 -1.20303,1.20303 v 4.5687 c 0,0.66663 0.53953,1.20303 1.20303,1.20303 v -10e-4 h 27.62313 c 0.65889,0 1.20301,-0.53645 1.20301,-1.20303 v -4.56872 c 0,-0.66663 -0.53952,-1.20303 -1.20301,-1.20303 z m -24.94655,2.29134 c 0.65421,0 1.19528,0.53641 1.19528,1.19527 0,0.65885 -0.53642,1.19838 -1.19528,1.19838 -0.65884,0 -1.19838,-0.53644 -1.19838,-1.19838 0,-0.66354 0.53643,-1.19527 1.19838,-1.19527 z m 3.70985,0 c 0.65889,0 1.19527,0.53641 1.19527,1.19527 0,0.65885 -0.53175,1.19838 -1.19527,1.19838 -0.66354,0 -1.19528,-0.53644 -1.19528,-1.19838 0,-0.66354 0.53642,-1.19527 1.19528,-1.19527 z m 3.71451,0 c 0.65421,0 1.19527,0.53641 1.19527,1.19527 0,0.65885 -0.53643,1.19838 -1.19527,1.19838 -0.65889,0 -1.19838,-0.53644 -1.19838,-1.19838 0,-0.66354 0.53643,-1.19527 1.19838,-1.19527 z m 6.63912,0.55191 h 9.63276 c 0.35656,0 0.64336,0.29299 0.64336,0.64336 0,0.34881 -0.28525,0.64337 -0.64336,0.64337 h -9.63276 c -0.35657,0 -0.64337,-0.28526 -0.64337,-0.64337 0,-0.35658 0.28526,-0.64336 0.64337,-0.64336 z m -16.73928,5.41749 c -0.65889,0 -1.20303,0.53566 -1.20303,1.20225 v 4.56949 h 7.8e-4 c 0,0.66663 0.53953,1.20303 1.20303,1.20303 h 27.62389 c 0.65889,0 1.20302,-0.53643 1.20302,-1.20303 v -4.56949 c 0,-0.66663 -0.53952,-1.20225 -1.20302,-1.20225 z m 2.6758,2.28978 c 0.65421,0 1.19528,0.53643 1.19528,1.19838 0,0.66352 -0.53642,1.19527 -1.19528,1.19527 -0.65884,0 -1.19838,-0.53643 -1.19838,-1.19527 0,-0.65886 0.53643,-1.19838 1.19838,-1.19838 z m 3.70985,0 c 0.65889,0 1.19527,0.53643 1.19527,1.19838 0,0.66352 -0.53175,1.19527 -1.19527,1.19527 -0.66354,0 -1.19528,-0.53643 -1.19528,-1.19527 0,-0.65886 0.53642,-1.19838 1.19528,-1.19838 z m 3.71451,0 c 0.65421,0 1.19527,0.53643 1.19527,1.19838 0,0.66352 -0.53643,1.19527 -1.19527,1.19527 -0.65889,0 -1.19838,-0.53643 -1.19838,-1.19527 0,-0.65886 0.53643,-1.19838 1.19838,-1.19838 z m 6.63912,0.55656 h 9.63276 c 0.35656,0 0.64336,0.28524 0.64336,0.64336 0,0.35657 -0.28525,0.64338 -0.64336,0.64338 h -9.63276 c -0.35657,0 -0.64337,-0.29301 -0.64337,-0.64338 0,-0.34882 0.28526,-0.64336 0.64337,-0.64336 z m 10.88539,5.41129 -27.62467,0.001 c -0.65889,0 -1.20303,0.53643 -1.20303,1.20302 v 4.56871 l 7.8e-4,-0.001 c 0,0.66663 0.53953,1.20303 1.20303,1.20303 h 27.62389 c 0.65889,0 1.20302,-0.53643 1.20302,-1.20303 v -4.56871 c 0,-0.66663 -0.53952,-1.20303 -1.20302,-1.20303 z m -24.94887,2.29134 c 0.65421,0 1.19528,0.53642 1.19528,1.19528 0,0.65884 -0.53642,1.19838 -1.19528,1.19838 -0.65884,0 -1.19838,-0.53645 -1.19838,-1.19838 0,-0.66354 0.53643,-1.19528 1.19838,-1.19528 z m 3.70985,0 c 0.65889,0 1.19527,0.53642 1.19527,1.19528 0,0.65884 -0.53175,1.19838 -1.19527,1.19838 -0.66354,0 -1.19528,-0.53645 -1.19528,-1.19838 0,-0.66354 0.53642,-1.19528 1.19528,-1.19528 z m 3.71451,0 c 0.65421,0 1.19527,0.53642 1.19527,1.19528 0,0.65884 -0.53643,1.19838 -1.19527,1.19838 -0.65889,0 -1.19838,-0.53645 -1.19838,-1.19838 0,-0.66354 0.53643,-1.19528 1.19838,-1.19528 z m 6.63912,0.5519 h 9.63276 c 0.35656,0 0.64336,0.29301 0.64336,0.64338 0,0.34881 -0.28525,0.64336 -0.64336,0.64336 h -9.63276 c -0.35657,0 -0.64337,-0.28525 -0.64337,-0.64336 0,-0.35658 0.28526,-0.64338 0.64337,-0.64338 z m 10.88151,5.41518 -27.62157,0.001 c -0.65889,0 -1.20303,0.53643 -1.20303,1.20303 v 4.56871 c 0,0.66663 0.53953,1.20303 1.20303,1.20303 h 27.62313 c 0.65889,0 1.20301,-0.53644 1.20301,-1.20303 l -0.001,-7.8e-4 v -4.56948 c 0,-0.66663 -0.53953,-1.20303 -1.20303,-1.20303 z m -24.94577,2.2921 c 0.66354,0 1.19528,0.53643 1.19528,1.19838 0,0.66354 -0.53642,1.19528 -1.19528,1.19528 -0.65889,0 -1.19836,-0.53642 -1.19836,-1.19528 0,-0.65884 0.53641,-1.19838 1.19836,-1.19838 z m 3.70986,0 c 0.65889,0 1.19528,0.53643 1.19528,1.19838 0,0.66354 -0.53174,1.19528 -1.19528,1.19528 -0.65421,0 -1.19527,-0.53642 -1.19527,-1.19528 0,-0.65884 0.53641,-1.19838 1.19527,-1.19838 z m 3.7145,0 c 0.66354,0 1.19527,0.53643 1.19527,1.19838 0,0.66354 -0.53643,1.19528 -1.19527,1.19528 -0.65889,0 -1.19838,-0.53642 -1.19838,-1.19528 0,-0.65884 0.53643,-1.19838 1.19838,-1.19838 z m 6.6399,0.555 h 9.63198 c 0.35656,0 0.64336,0.28527 0.64336,0.64338 0,0.35658 -0.28525,0.64337 -0.64336,0.64337 h -9.63198 c -0.35655,0 -0.64337,-0.293 -0.64337,-0.64337 0,-0.34881 0.28526,-0.64338 0.64337,-0.64338 z" /><path
       style="fill:none;stroke:#000000;stroke-width:3;stroke-miterlimit:10;stroke-dasharray:none;marker-end:url(#RoundedArrow)"
       d="M 50.712731,113.86649 C 79.80146,79.241164 124.15197,79.335754 152.51659,107.99006"
       id="path2"
       sodipodi:nodetypes="cc" /><text
       xml:space="preserve"
       style="font-style:normal;font-variant:normal;font-weight:normal;font-stretch:normal;font-size:7.9375px;line-height:normal;font-family:Roboto;-inkscape-font-specification:Roboto;text-decoration-color:#000000;fill:#0065bd;fill-opacity:1;stroke:none;stroke-width:3;stroke-miterlimit:10;stroke-dasharray:none"
       x="77.070831"
       y="48.054893"
       id="text2"><tspan
         sodipodi:role="line"
         id="tspan2"
         style="font-style:normal;font-variant:normal;font-weight:normal;font-stretch:normal;font-size:7.9375px;font-family:Roboto;-inkscape-font-specification:Roboto;fill:#0065bd;fill-opacity:1;stroke:none;stroke-width:3"
         x="77.070831"
         y="48.054893"><tspan
   style="font-style:normal;font-variant:normal;font-weight:bold;font-stretch:normal;font-family:Roboto;-inkscape-font-specification:Roboto;fill:#0065bd;fill-opacity:1;stroke-width:3"
   id="tspan11">GetMap</tspan> request</tspan></text><text
       xml:space="preserve"
       style="font-style:normal;font-variant:normal;font-weight:normal;font-stretch:normal;font-size:7.9375px;line-height:normal;font-family:Roboto;-inkscape-font-specification:Roboto;text-decoration-color:#000000;fill:#0065bd;fill-opacity:1;stroke:none;stroke-width:3;stroke-miterlimit:10;stroke-dasharray:none"
       x="106.26478"
       y="241.89061"
       id="text2-1"><tspan
         sodipodi:role="line"
         id="tspan2-0"
         style="font-style:normal;font-variant:normal;font-weight:bold;font-stretch:normal;font-size:7.9375px;font-family:Roboto;-inkscape-font-specification:Roboto;text-align:center;text-anchor:middle;fill:#0065bd;fill-opacity:1;stroke:none;stroke-width:3"
         x="106.26478"
         y="241.89061">map image</tspan></text><text
       xml:space="preserve"
       style="font-weight:200;font-size:7.9375px;line-height:normal;font-family:Technika-Light, Technika;text-align:center;text-decoration-color:#000000;text-anchor:middle;fill:#000000;stroke:none;stroke-width:3;stroke-miterlimit:10;stroke-dasharray:none"
       x="15.067713"
       y="100.83392"
       id="text2-7"><tspan
         sodipodi:role="line"
         id="tspan2-8"
         style="font-style:normal;font-variant:normal;font-weight:bold;font-stretch:normal;font-size:7.9375px;font-family:Roboto;-inkscape-font-specification:'Roboto Bold';text-align:center;text-anchor:middle;fill:#000000;stroke:none;stroke-width:3"
         x="15.067713"
         y="100.83392">client</tspan></text><text
       xml:space="preserve"
       style="font-style:normal;font-variant:normal;font-weight:normal;font-stretch:normal;font-size:5.15937px;line-height:1.5;font-family:'Courier New';-inkscape-font-specification:'Courier New';text-decoration-color:#000000;fill:#0065bd;fill-opacity:1;stroke:none;stroke-width:3;stroke-miterlimit:10;stroke-dasharray:none"
       x="77.070831"
       y="55.901054"
       id="text4"><tspan
         sodipodi:role="line"
         id="tspan4"
         style="font-style:normal;font-variant:normal;font-weight:normal;font-stretch:normal;font-size:5.15937px;line-height:1.5;font-family:'Courier New';-inkscape-font-specification:'Courier New';fill:#0065bd;fill-opacity:1;stroke:none;stroke-width:3"
         x="77.070831"
         y="55.901054">SERVICE=WMS</tspan><tspan
         sodipodi:role="line"
         style="font-style:normal;font-variant:normal;font-weight:normal;font-stretch:normal;font-size:5.15937px;line-height:1.5;font-family:'Courier New';-inkscape-font-specification:'Courier New';fill:#0065bd;fill-opacity:1;stroke:none;stroke-width:3"
         x="77.070831"
         y="63.64011"
         id="tspan5">CRS=EPSG:4326</tspan><tspan
         sodipodi:role="line"
         style="font-style:normal;font-variant:normal;font-weight:normal;font-stretch:normal;font-size:5.15937px;line-height:1.5;font-family:'Courier New';-inkscape-font-specification:'Courier New';fill:#0065bd;fill-opacity:1;stroke:none;stroke-width:3"
         x="77.070831"
         y="71.379166"
         id="tspan6">BBOX=-180,-90,180,90</tspan><tspan
         sodipodi:role="line"
         style="font-style:normal;font-variant:normal;font-weight:normal;font-stretch:normal;font-size:5.15937px;line-height:1.5;font-family:'Courier New';-inkscape-font-specification:'Courier New';fill:#0065bd;fill-opacity:1;stroke:none;stroke-width:3"
         x="77.070831"
         y="79.118217"
         id="tspan7">FORMAT=image/jpeg</tspan></text><text
       xml:space="preserve"
       style="font-style:normal;font-variant:normal;font-weight:normal;font-stretch:normal;font-size:3.96874px;line-height:normal;font-family:Roboto;-inkscape-font-specification:Roboto;text-align:center;text-decoration-color:#000000;text-anchor:middle;fill:#000000;stroke:none;stroke-width:3;stroke-miterlimit:10;stroke-dasharray:none"
       x="15.067713"
       y="105.59641"
       id="text8"><tspan
         sodipodi:role="line"
         id="tspan8"
         style="font-style:normal;font-variant:normal;font-weight:normal;font-stretch:normal;font-size:3.96874px;font-family:Roboto;-inkscape-font-specification:Roboto;text-align:center;text-anchor:middle;fill:#000000;stroke:none;stroke-width:3"
         x="15.067713"
         y="105.59641">web/desktop GIS application</tspan></text><text
       xml:space="preserve"
       style="font-weight:200;font-size:7.9375px;line-height:normal;font-family:Technika-Light, Technika;text-align:center;text-decoration-color:#000000;text-anchor:middle;fill:#000000;stroke:none;stroke-width:3;stroke-miterlimit:10;stroke-dasharray:none"
       x="181.8774"
       y="99.151855"
       id="text9"><tspan
         sodipodi:role="line"
         id="tspan9"
         style="font-style:normal;font-variant:normal;font-weight:bold;font-stretch:normal;font-size:7.9375px;font-family:Roboto;-inkscape-font-specification:'Roboto Bold';text-align:center;text-anchor:middle;fill:#000000;stroke:none;stroke-width:3"
         x="181.8774"
         y="99.151855">server</tspan></text><text
       xml:space="preserve"
       style="font-style:normal;font-variant:normal;font-weight:normal;font-stretch:normal;font-size:3.96874px;line-height:normal;font-family:Roboto;-inkscape-font-specification:Roboto;text-align:center;text-decoration-color:#000000;text-anchor:middle;fill:#000000;stroke:none;stroke-width:3;stroke-miterlimit:10;stroke-dasharray:none"
       x="181.8774"
       y="103.91433"
       id="text10"><tspan
         sodipodi:role="line"
         id="tspan10"
         style="font-style:normal;font-variant:normal;font-weight:normal;font-stretch:normal;font-size:3.96874px;font-family:Roboto;-inkscape-font-specification:Roboto;text-align:center;text-anchor:middle;fill:#000000;stroke:none;stroke-width:3"
         x="181.8774"
         y="103.91433">e.g. eea.europa.eu</tspan></text><path
       style="fill:none;stroke:#000000;stroke-width:3;stroke-miterlimit:10;stroke-dasharray:none;marker-end:url(#RoundedArrow)"
       d="m 161.9835,155.18912 c -29.08872,34.62532 -73.439235,34.53073 -101.80386,5.87643"
       id="path10"
       sodipodi:nodetypes="cc" /><text
       xml:space="preserve"
       style="font-style:normal;font-variant:normal;font-weight:normal;font-stretch:normal;font-size:7.9375px;line-height:normal;font-family:Roboto;-inkscape-font-specification:Roboto;text-decoration-color:#000000;fill:#0065bd;fill-opacity:1;stroke:none;stroke-width:3;stroke-miterlimit:10;stroke-dasharray:none"
       x="106.26478"
       y="255.17155"
       id="text1"><tspan
         sodipodi:role="line"
         id="tspan1"
         style="font-style:normal;font-variant:normal;font-weight:bold;font-stretch:normal;font-size:7.9375px;font-family:Roboto;-inkscape-font-specification:Roboto;text-align:center;text-anchor:middle;fill:#0065bd;fill-opacity:1;stroke:none;stroke-width:3"
         x="106.26478"
         y="255.17155">feature data</tspan></text><text
       xml:space="preserve"
       style="font-style:normal;font-variant:normal;font-weight:normal;font-stretch:normal;font-size:3.96874px;line-height:normal;font-family:Roboto;-inkscape-font-specification:Roboto;font-variant-ligatures:normal;font-variant-position:normal;font-variant-caps:normal;font-variant-numeric:normal;font-variant-alternates:normal;font-variant-east-asian:normal;font-feature-settings:normal;font-variation-settings:normal;text-indent:0;text-align:center;text-decoration-line:none;text-decoration-style:solid;text-decoration-color:#000000;letter-spacing:normal;word-spacing:normal;text-transform:none;writing-mode:lr-tb;direction:ltr;text-orientation:mixed;dominant-baseline:auto;baseline-shift:baseline;white-space:normal;opacity:1;vector-effect:none;fill:#0065bd;fill-opacity:1;stroke:none;stroke-width:3;stroke-linecap:butt;stroke-linejoin:miter;stroke-miterlimit:10;stroke-dasharray:none;stroke-dashoffset:0;stroke-opacity:1;-inkscape-stroke:none;stop-color:#000000;stop-opacity:1"
       x="106.26478"
       y="247.77144"
       id="text3"><tspan
         sodipodi:role="line"
         id="tspan3"
         style="font-style:normal;font-variant:normal;font-weight:normal;font-stretch:normal;font-size:3.96874px;line-height:normal;font-family:Roboto;-inkscape-font-specification:Roboto;font-variant-ligatures:normal;font-variant-position:normal;font-variant-caps:normal;font-variant-numeric:normal;font-variant-alternates:normal;font-variant-east-asian:normal;font-feature-settings:normal;font-variation-settings:normal;text-indent:0;text-align:center;text-decoration-line:none;text-decoration-style:solid;text-decoration-color:#000000;letter-spacing:normal;word-spacing:normal;text-transform:none;writing-mode:lr-tb;direction:ltr;text-orientation:mixed;dominant-baseline:auto;baseline-shift:baseline;text-anchor:middle;white-space:normal;vector-effect:none;fill:#0065bd;fill-opacity:1;stroke:none;stroke-width:3;stroke-linecap:butt;stroke-linejoin:miter;stroke-miterlimit:10;stroke-dasharray:none;stroke-dashoffset:0;stroke-opacity:1;-inkscape-stroke:none;stop-color:#000000;stop-opacity:1"
         x="106.26478"
         y="247.77144">OR</tspan></text></g></svg>
