<?xml version="1.0" encoding="UTF-8" standalone="no"?>
<!-- Created with Inkscape (http://www.inkscape.org/) -->

<svg
   width="1250.4319"
   height="514.46771"
   viewBox="0 0 330.84346 136.11959"
   version="1.1"
   id="svg10417"
   inkscape:version="1.3.2 (091e20e, 2023-11-25, custom)"
   sodipodi:docname="kos-logo-BW.svg"
   xml:space="preserve"
   xmlns:inkscape="http://www.inkscape.org/namespaces/inkscape"
   xmlns:sodipodi="http://sodipodi.sourceforge.net/DTD/sodipodi-0.dtd"
   xmlns="http://www.w3.org/2000/svg"
   xmlns:svg="http://www.w3.org/2000/svg"><sodipodi:namedview
     id="namedview10419"
     pagecolor="#ffffff"
     bordercolor="#666666"
     borderopacity="1.0"
     inkscape:pageshadow="2"
     inkscape:pageopacity="0.0"
     inkscape:pagecheckerboard="0"
     inkscape:document-units="mm"
     showgrid="false"
     inkscape:snap-bbox="true"
     inkscape:bbox-nodes="true"
     inkscape:bbox-paths="true"
     inkscape:snap-bbox-edge-midpoints="true"
     inkscape:snap-bbox-midpoints="true"
     inkscape:object-paths="true"
     inkscape:snap-intersection-paths="true"
     inkscape:snap-smooth-nodes="true"
     inkscape:snap-midpoints="true"
     inkscape:snap-object-midpoints="true"
     inkscape:snap-center="true"
     inkscape:snap-text-baseline="true"
     fit-margin-top="0"
     fit-margin-left="0"
     fit-margin-right="0"
     fit-margin-bottom="0"
     inkscape:zoom="0.16344479"
     inkscape:cx="-1541.805"
     inkscape:cy="-36.709644"
     inkscape:window-width="1920"
     inkscape:window-height="1017"
     inkscape:window-x="-8"
     inkscape:window-y="-8"
     inkscape:window-maximized="1"
     inkscape:current-layer="layer1"
     units="px"
     inkscape:showpageshadow="2"
     inkscape:deskcolor="#d1d1d1" /><defs
     id="defs10414" /><g
     inkscape:label="Layer 1"
     inkscape:groupmode="layer"
     id="layer1"
     transform="translate(-342.29492,-175.1363)"><path
       d="m 462.35651,308.22166 h -44.90639 l -37.71764,-62.64488 v 62.64488 H 342.29492 V 178.17051 h 37.43756 v 59.93742 l 36.31723,-59.93742 h 45.74664 l -43.41263,62.92496 z"
       id="path38193"
       style="font-weight:bold;font-size:211.667px;line-height:1.25;font-family:Technika;-inkscape-font-specification:'Technika Bold';fill:#ffffff;fill-opacity:1;stroke-width:0.264583" /><path
       d="m 506.48987,311.25588 q -19.32561,0 -34.07657,-8.029 -14.75095,-8.029 -22.96668,-23.34011 -8.12236,-15.40448 -8.12236,-36.69068 0,-21.28619 8.12236,-36.5973 8.21573,-15.40448 22.96668,-23.43348 14.75096,-8.02901 34.07657,-8.02901 19.41899,0 34.07658,8.02901 14.6576,8.029 22.6866,23.34011 8.12236,15.31112 8.12236,36.69067 0,21.37955 -8.12236,36.69068 -8.029,15.31111 -22.6866,23.34011 -14.65759,8.029 -34.07658,8.029 z m 0,-33.32969 q 12.3236,0 18.48539,-9.05596 6.16179,-9.14933 6.16179,-25.67414 0,-16.5248 -6.16179,-25.67413 -6.16179,-9.14933 -18.48539,-9.14933 -12.23021,0 -18.67209,9.24269 -6.34851,9.14933 -6.34851,25.58077 0,16.33808 6.34851,25.58078 6.44188,9.14932 18.67209,9.14932 z"
       id="path38215"
       style="font-weight:bold;font-size:211.667px;line-height:1.25;font-family:Technika;-inkscape-font-specification:'Technika Bold';fill:#ffffff;fill-opacity:1;stroke-width:0.264583" /><path
       d="m 617.86895,311.25588 q -14.09744,0 -25.39406,-2.70745 -11.29662,-2.6141 -19.51233,-7.28212 V 267.2831 q 7.37547,5.13482 19.23225,9.24269 11.85679,4.10786 23.71356,4.10786 9.52277,0 14.47088,-2.61409 5.04147,-2.6141 5.04147,-7.46885 0,-3.64106 -2.98754,-5.69498 -2.98754,-2.05394 -8.86925,-3.54771 l -7.18875,-1.77385 q -6.6286,-1.49376 -16.058,-3.92113 -13.53727,-3.36098 -21.28619,-12.88375 -7.65556,-9.52277 -7.65556,-24.27372 0,-12.88375 7.28211,-22.6866 7.28212,-9.89621 20.0725,-15.21776 12.79039,-5.41491 28.84839,-5.41491 10.92318,0 20.81939,1.86722 9.98957,1.86721 16.71153,4.76138 v 32.30272 q -6.06844,-3.36097 -15.49784,-5.97507 -9.33605,-2.61409 -20.07251,-2.61409 -10.64309,0 -15.87128,2.52073 -5.13483,2.42737 -5.13483,6.90868 0,3.64105 2.89418,5.78834 2.98753,2.05394 9.70949,3.54771 l 5.04147,1.02696 q 7.37548,1.30705 14.84432,3.17426 16.058,3.92114 24.087,13.53727 8.029,9.52276 8.029,25.30069 0,11.1099 -6.62859,21.28619 -6.53524,10.08292 -19.13891,16.43144 -12.5103,6.25515 -29.5019,6.25515 z"
       id="path38237"
       style="font-weight:bold;font-size:211.667px;line-height:1.25;font-family:Technika;-inkscape-font-specification:'Technika Bold';fill:#ffffff;fill-opacity:1;stroke-width:0.264583" /></g></svg>
