<?xml version="1.0" encoding="UTF-8" standalone="no"?>
<!-- Created with Inkscape (http://www.inkscape.org/) -->

<svg
   width="511.99826"
   height="314.9108"
   viewBox="0 0 135.46622 83.320153"
   version="1.1"
   id="svg10417"
   inkscape:version="1.3.2 (091e20e, 2023-11-25, custom)"
   sodipodi:docname="kos-logo-img-BW.svg"
   xml:space="preserve"
   xmlns:inkscape="http://www.inkscape.org/namespaces/inkscape"
   xmlns:sodipodi="http://sodipodi.sourceforge.net/DTD/sodipodi-0.dtd"
   xmlns="http://www.w3.org/2000/svg"
   xmlns:svg="http://www.w3.org/2000/svg"><sodipodi:namedview
     id="namedview10419"
     pagecolor="#ffffff"
     bordercolor="#666666"
     borderopacity="1.0"
     inkscape:pageshadow="2"
     inkscape:pageopacity="0.0"
     inkscape:pagecheckerboard="0"
     inkscape:document-units="mm"
     showgrid="false"
     inkscape:snap-bbox="true"
     inkscape:bbox-nodes="true"
     inkscape:bbox-paths="true"
     inkscape:snap-bbox-edge-midpoints="true"
     inkscape:snap-bbox-midpoints="true"
     inkscape:object-paths="true"
     inkscape:snap-intersection-paths="true"
     inkscape:snap-smooth-nodes="true"
     inkscape:snap-midpoints="true"
     inkscape:snap-object-midpoints="true"
     inkscape:snap-center="true"
     inkscape:snap-text-baseline="true"
     fit-margin-top="0"
     fit-margin-left="0"
     fit-margin-right="0"
     fit-margin-bottom="0"
     inkscape:zoom="0.16344479"
     inkscape:cx="-1541.805"
     inkscape:cy="-36.709644"
     inkscape:window-width="1920"
     inkscape:window-height="1017"
     inkscape:window-x="-8"
     inkscape:window-y="-8"
     inkscape:window-maximized="1"
     inkscape:current-layer="layer1"
     units="px"
     inkscape:showpageshadow="2"
     inkscape:deskcolor="#d1d1d1" /><defs
     id="defs10414" /><g
     inkscape:label="Layer 1"
     inkscape:groupmode="layer"
     id="layer1"
     transform="translate(-172.74579,-202.72601)"><path
       id="path12107"
       style="color:#000000;fill:#ffffff;fill-opacity:1;stroke-width:3.40584;stroke-linecap:square;stroke-linejoin:round;-inkscape-stroke:none"
       d="m 188.76276,223.43064 a 1.9730152,1.4700879 0 0 0 -1.97359,1.47022 v 24.96258 a 1.9730152,1.4700879 0 0 0 1.97359,1.47023 h 3.02896 a 1.9730152,1.4700879 0 0 0 1.97321,-1.47023 v -24.96258 a 1.9730152,1.4700879 0 0 0 -1.97321,-1.47022 z" /><path
       id="path12107-3"
       style="color:#000000;fill:#ffffff;fill-opacity:1;stroke-width:2.24337;stroke-linecap:square;stroke-linejoin:round;-inkscape-stroke:none"
       d="m 188.96047,263.16848 c -0.70934,-1.6e-4 -1.28447,0.43873 -1.2844,0.98015 l -2.04953,16.64172 c -7e-5,0.5414 2.62459,0.98028 3.33393,0.98013 h 1.97125 c 0.70925,5e-5 3.9959,-0.4388 3.99583,-0.98013 l -2.71168,-16.64172 c 7e-5,-0.54134 -0.5749,-0.98021 -1.28415,-0.98015 z"
       sodipodi:nodetypes="ccccccccc" /><circle
       style="fill:#ffffff;fill-opacity:1;stroke:none;stroke-width:3.1043;stroke-linecap:square;stroke-linejoin:round;stroke-miterlimit:4;stroke-dasharray:none;stroke-opacity:1"
       id="path14047"
       cx="190.27708"
       cy="257.25104"
       r="4.6505036" /><path
       id="path11311"
       style="color:#000000;fill:#ffffff;fill-opacity:1;stroke-width:5.81312;stroke-linecap:square;stroke-linejoin:round"
       d="m 239.96311,202.73763 a 4.5961336,1.8384579 0 0 0 -2.73524,0.52762 l -31.5681,12.62765 -31.56861,12.62713 a 4.5961336,1.8384579 0 0 0 0,2.59933 l 63.13878,25.2553 a 4.5961336,1.8384579 0 0 0 6.49831,0 l 63.13672,-25.25478 a 4.5961336,1.8384579 0 0 0 0.002,-2.59985 l -63.13878,-25.25582 a 4.5961336,1.8384579 0 0 0 -3.76514,-0.52658 z" /><path
       id="path30364"
       style="color:#000000;fill:#ffffff;fill-opacity:1;stroke-width:5.81312;stroke-linecap:square;stroke-linejoin:round"
       d="m 204.02806,247.32743 -0.65164,10.07277 33.85375,13.54129 a 4.5961336,1.8384579 0 0 0 6.49831,0 l 33.82171,-13.52889 v -0.003 l -0.0253,0.0103 -1.07435,-9.90069 -32.72204,13.08912 a 4.5961336,1.8384579 0 0 1 -6.49831,0 z" /><path
       id="path30364-8"
       style="color:#000000;fill:#ffffff;fill-opacity:1;stroke-width:5.81312;stroke-linecap:square;stroke-linejoin:round"
       d="m 204.02804,261.89395 -0.65164,10.07277 33.85375,13.54129 a 4.5961336,1.8384579 0 0 0 6.49831,0 l 33.82171,-13.52889 v -0.003 l -0.0253,0.0103 -1.07435,-9.90069 -32.72204,13.08912 a 4.5961336,1.8384579 0 0 1 -6.49831,0 z" /></g></svg>
