<?xml version="1.0" encoding="UTF-8" standalone="no"?>
<svg
   viewBox="0 0 24 24"
   version="1.1"
   id="svg1"
   sodipodi:docname="numeric-10-box.svg"
   inkscape:version="1.3 (0e150ed6c4, 2023-07-21)"
   xmlns:inkscape="http://www.inkscape.org/namespaces/inkscape"
   xmlns:sodipodi="http://sodipodi.sourceforge.net/DTD/sodipodi-0.dtd"
   xmlns="http://www.w3.org/2000/svg"
   xmlns:svg="http://www.w3.org/2000/svg">
  <defs
     id="defs1" />
  <sodipodi:namedview
     id="namedview1"
     pagecolor="#505050"
     bordercolor="#eeeeee"
     borderopacity="1"
     inkscape:showpageshadow="0"
     inkscape:pageopacity="0"
     inkscape:pagecheckerboard="0"
     inkscape:deskcolor="#d1d1d1"
     inkscape:current-layer="svg1" />
  <path
     id="path2"
     d="M 5 3 A 2 2 0 0 0 3 5 L 3 19 A 2 2 0 0 0 5 21 L 19 21 C 20.109999 21 21 20.109999 21 19 L 21 5 C 21 3.9000011 20.109999 3 19 3 L 5 3 z M 7 7 L 11 7 L 11 17 L 9 17 L 9 9 L 7 9 L 7 7 z M 13 7 L 17 7 L 17 17 L 15 17 L 15 9 L 13 9 L 13 7 z " />
</svg>
