<?xml version="1.0" encoding="UTF-8" standalone="no"?>
<!-- Generator: Adobe Illustrator 15.0.0, SVG Export Plug-In . SVG Version: 6.00 Build 0)  -->

<svg
   version="1.1"
   id="Layer_1"
   x="0px"
   y="0px"
   width="45"
   height="45"
   viewBox="0 0 45 45.000001"
   enable-background="new 0 0 290.547 141.73"
   xml:space="preserve"
   sodipodi:docname="favicon.svg"
   inkscape:version="1.3 (0e150ed6c4, 2023-07-21)"
   inkscape:export-filename="favicon.png"
   inkscape:export-xdpi="546.13336"
   inkscape:export-ydpi="546.13336"
   xmlns:inkscape="http://www.inkscape.org/namespaces/inkscape"
   xmlns:sodipodi="http://sodipodi.sourceforge.net/DTD/sodipodi-0.dtd"
   xmlns="http://www.w3.org/2000/svg"
   xmlns:svg="http://www.w3.org/2000/svg"><defs
   id="defs34">&#10;	&#10;	&#10;	&#10;	&#10;	&#10;	&#10;	&#10;	&#10;	&#10;	&#10;	&#10;&#10;		&#10;	&#10;		&#10;		&#10;		&#10;		&#10;		&#10;	&#10;		&#10;	&#10;		&#10;	&#10;		&#10;	&#10;		&#10;		&#10;		&#10;		&#10;		&#10;		&#10;		&#10;		&#10;		&#10;		&#10;		&#10;	&#10;		&#10;		&#10;		&#10;		&#10;		&#10;		&#10;		&#10;		&#10;		&#10;		&#10;		&#10;		&#10;	&#10;		&#10;	</defs><sodipodi:namedview
   id="namedview34"
   pagecolor="#505050"
   bordercolor="#eeeeee"
   borderopacity="1"
   inkscape:showpageshadow="0"
   inkscape:pageopacity="0"
   inkscape:pagecheckerboard="0"
   inkscape:deskcolor="#d1d1d1"
   inkscape:current-layer="Layer_1" />&#10;<path
   id="rect34"
   style="font-variation-settings:normal;opacity:1;vector-effect:none;fill:#ffffff;fill-opacity:1;fill-rule:evenodd;stroke:none;stroke-width:1.33333;stroke-linecap:butt;stroke-linejoin:miter;stroke-miterlimit:4;stroke-dasharray:none;stroke-dashoffset:0;stroke-opacity:1;-inkscape-stroke:none;stop-color:#000000;stop-opacity:1"
   d="m 15.613094,6.5174561 2.648438,5.1992189 c 2.058998,-0.195 4.022377,-0.294922 5.984375,-0.294922 3.628996,0 6.767705,0.197188 9.220703,0.492187 l 3.041015,-5.3964839 h -4.511718 c 0,0.980999 -0.882939,2.0605469 -1.960938,2.0605469 -1.176999,0 -1.96289,-0.7855482 -1.96289,-2.0605469 h -4.023438 c 0,1.1779988 -0.880939,2.0605469 -1.960938,2.0605469 -1.076998,0 -1.96289,-0.8835481 -1.96289,-2.0605469 z m 8.533203,5.9824219 c -1.668998,0 -3.23883,0.09827 -5.298828,0.197266 1.274999,1.763998 5.495533,1.276204 6.769531,2.158203 -1.076999,-0.097 -2.157329,-0.09869 -3.236328,0.195312 0,0.685999 -0.294469,1.472656 -0.980469,1.472656 -1.275998,0 -1.864094,-1.374174 -2.746093,-3.826171 l -5.003907,0.392578 c -0.784999,0.097 -1.078468,0.392469 -0.980468,0.980468 l 0.490234,4.904297 c 0,0.195 0.195578,0.294922 0.392578,0.294922 0.195,0 0.392235,-0.09858 0.490235,-0.392578 0.194999,-0.393 0.785814,-1.277344 2.257812,-1.277344 2.156998,0 3.823828,1.963706 3.923828,4.220703 -0.784999,-1.079999 -2.55119,-2.060546 -5.492187,-2.060546 -2.255998,0 -4.122456,0.685546 -7.0644528,0.685546 -3.138997,0 -4.90625,-1.177439 -4.90625,-2.648437 0,-0.686999 0.09823,-1.07836 0.490234,-1.568359 -1.274999,0.587999 -2.253906,1.665642 -2.253906,3.43164 0,2.157998 1.569692,4.416016 6.179687,4.416016 4.2179958,0 6.1798628,-2.650391 10.0058598,-2.650391 1.764998,0 2.648437,0.883235 2.648437,1.865235 0,0.881999 -0.784204,1.667968 -2.158203,1.667968 -1.666998,0 -2.843594,-0.882626 -3.433594,-1.765625 -0.098,-0.196 -0.197531,-0.294922 -0.394531,-0.294922 -0.293,0 -0.392578,0.195579 -0.392578,0.392579 l 0.09961,4.708984 c 0,0.587999 0.29247,0.883156 0.980469,0.785156 2.942997,-0.294 5.984081,-0.686813 8.830078,-0.882812 5.296995,-0.49 8.925781,-4.02327 8.925781,-7.947266 0,-0.586999 3.44e-4,-1.077016 -0.09766,-1.666016 0.491,0.785 0.6875,1.569783 0.6875,2.550782 0,3.629996 -1.962241,6.37597 -8.240234,8.042968 -3.335997,0.881999 -5.787816,1.275892 -8.632813,1.962891 -7.5529918,1.765998 -12.4589838,7.55235 -12.4589838,14.027344 0,0.04259 0.0054,0.08443 0.0059,0.126953 h 4.597656 c 0.772285,-4.280105 3.9115798,-7.374987 8.7363288,-9.152344 3.432996,-1.274999 6.181237,-2.059329 9.615234,-3.236328 6.670993,-2.353998 8.828125,-5.494522 8.828125,-11.478516 0,-3.432996 -1.27594,-6.37597 -3.335938,-8.042968 0.686,0.784999 0.882813,1.765438 0.882813,2.648437 0,1.667998 -0.882204,2.453125 -2.158203,2.453125 -0.784999,0 -1.569969,-0.490391 -1.667969,-1.27539 0.392,0.293999 0.687079,0.390624 1.080078,0.390624 1.079999,0 1.666016,-0.782329 1.666016,-1.861328 0,-1.667998 -1.569674,-2.553047 -3.138672,-2.748046 -1.372999,-0.197 -2.84472,-0.197266 -4.511719,-0.197266 z m 10.300782,1.865234 c 1.275998,1.568999 2.060546,4.217847 2.060546,6.964844 0,6.473994 -2.452975,10.103643 -9.417968,12.556641 -2.843998,0.881999 -5.883441,1.76636 -9.023438,2.943359 -4.753032,1.802961 -7.560405,4.311385 -8.3652338,8.169922 h 5.4374998 c 1.094688,-1.810471 2.957396,-3.347857 5.96875,-4.638672 3.530996,-1.470999 5.394519,-2.157595 8.728515,-3.433594 7.062993,-2.647997 8.535157,-7.84627 8.535157,-12.947265 0,-4.904995 -1.766831,-7.751237 -3.923828,-9.615235 z m 3.726562,3.138672 c 1.079999,2.058998 1.375,4.513221 1.375,6.574219 0,5.982994 -1.766476,11.180737 -8.730469,13.927734 -3.531996,1.471999 -5.788081,1.961939 -8.830078,3.335938 -2.32786,1.092501 -3.95338,2.281451 -5.023437,3.658203 h 8.113281 c 0.01709,-0.0088 0.03167,-0.01854 0.04883,-0.02734 3.335997,-1.569998 5.298237,-2.354517 8.240234,-3.728516 6.180994,-3.039996 8.044922,-8.240036 8.044922,-13.832031 0,-5.394994 -1.765282,-8.142205 -3.238281,-9.908203 z m 3.826172,5.003906 c 0.295,1.764999 0.589844,3.235955 0.589844,5.001954 0,6.768993 -2.354163,11.771503 -8.535157,14.8125 -2.457981,1.22899 -4.104684,1.986806 -5.601562,2.677734 h 9.210937 c 4.613366,-3.530366 6.298828,-8.963883 6.298828,-14.546875 1e-6,-3.236997 -0.882891,-5.788315 -1.96289,-7.945313 z"
   sodipodi:nodetypes="ccscccsccsccscccsccccscscssscssssscsccccscsccsccccscsscsscsscsccccccscssccccccssscscccsc" />&#10;</svg>
